<svg width="24" height="19" viewBox="0 0 24 19" fill="none" xmlns="http://www.w3.org/2000/svg">
<path d="M9.205 19C9.00696 18.9999 8.81177 18.9518 8.63557 18.8596C8.45937 18.7673 8.30721 18.6337 8.19167 18.4696L3.23333 11.4643H0V8.91438H3.87333C4.07126 8.91413 4.2664 8.96195 4.44261 9.05388C4.61882 9.14581 4.77103 9.27921 4.88667 9.44305L8.93833 15.165L15.12 0.763264C15.2173 0.53619 15.3775 0.343019 15.5809 0.20744C15.7843 0.0718609 16.022 -0.000232609 16.265 5.6383e-07H24V2.54988H17.0833L10.3517 18.235C10.2629 18.4419 10.1219 18.621 9.94292 18.7539C9.76398 18.8868 9.55359 18.9688 9.33333 18.9915C9.28892 18.994 9.24441 18.994 9.2 18.9915" fill="#00C389"/>
</svg>
